<svg xmlns="http://www.w3.org/2000/svg" width="151.059" height="141.618" viewBox="0 0 151.059 141.618">
  <path id="Icon_awesome-cat" data-name="Icon awesome-cat" d="M85.735,49.456c-5.954,0-31.516.584-47.97,25.358V49.456A28.354,28.354,0,0,0,9.441,21.132a9.441,9.441,0,0,0,0,18.882,9.454,9.454,0,0,1,9.441,9.441v75.529a18.9,18.9,0,0,0,18.882,18.882H89.691a4.719,4.719,0,0,0,4.721-4.721v-4.721a9.442,9.442,0,0,0-9.441-9.441H75.529l37.765-28.324v42.485a4.719,4.719,0,0,0,4.721,4.721h9.441a4.719,4.719,0,0,0,4.721-4.721V78.328a37.389,37.389,0,0,1-9.441,1.339A37.826,37.826,0,0,1,85.735,49.456Zm46.442-28.324H113.294L94.412,2.25V41.9a28.324,28.324,0,1,0,56.647,0V2.25Zm-21.243,23.6a4.721,4.721,0,1,1,4.721-4.721A4.719,4.719,0,0,1,110.934,44.735Zm23.6,0a4.721,4.721,0,1,1,4.721-4.721A4.719,4.719,0,0,1,134.537,44.735Z" transform="translate(0 -2.25)" fill="#492f24"/>
</svg>
