<svg xmlns="http://www.w3.org/2000/svg" width="123.269" height="115.649" viewBox="0 0 123.269 115.649">
  <g id="Icon_material-pets" data-name="Icon material-pets" transform="translate(47.685 -15.061) rotate(34)">
    <path id="Path_2" data-name="Path 2" d="M25.933,11.712c-.387,6.844-6.5,12.7-13.657,13.091S-.367,19.955.019,13.112,6.52.407,13.676.02,26.32,4.868,25.933,11.712Z" transform="translate(0 22.766)" fill="#593c30"/>
    <path id="Path_3" data-name="Path 3" d="M25.933,11.712c-.387,6.844-6.5,12.7-13.657,13.091S-.367,19.955.019,13.112,6.52.407,13.676.02,26.32,4.868,25.933,11.712Z" transform="translate(24.443 1.68)" fill="#593c30"/>
    <path id="Path_4" data-name="Path 4" d="M25.933,11.712c-.387,6.844-6.5,12.7-13.657,13.091S-.367,19.955.019,13.112,6.52.407,13.676.02,26.32,4.868,25.933,11.712Z" transform="translate(55.539 0)" fill="#593c30"/>
    <path id="Path_5" data-name="Path 5" d="M25.933,11.712c-.387,6.844-6.5,12.7-13.657,13.091S-.367,19.955.019,13.112,6.52.407,13.676.02,26.32,4.868,25.933,11.712Z" transform="translate(77.742 18.567)" fill="#593c30"/>
    <path id="Path_6" data-name="Path 6" d="M70.4,20.205c-4.224-4.812-7.763-8.92-12.039-13.729-2.233-2.548-5.14-5.059-8.7-6.053A10.085,10.085,0,0,0,47.979.069a27.021,27.021,0,0,0-4.031.02A23.342,23.342,0,0,0,39.84.558,11.847,11.847,0,0,0,38.1,1.1c-3.7,1.386-6.852,4.224-9.439,7.033C23.87,13.429,19.843,17.945,15,23.248,7.84,30.107-.91,37.745.077,47.723,1.294,52.7,4.795,57.5,11.5,58.57c3.741.539,15.983-3.038,28.836-3.732l.933-.05c12.853-.694,24.767,1.528,28.59.63A18.58,18.58,0,0,0,82.587,43.266c2.178-10.2-5.761-16.935-12.183-23.061Z" transform="translate(7.62 37.945)" fill="#593c30"/>
  </g>
</svg>
