<svg xmlns="http://www.w3.org/2000/svg" width="147.323" height="138.115" viewBox="0 0 147.323 138.115">
  <path id="Icon_awesome-dog" data-name="Icon awesome-dog" d="M142.719,20.665H124.3l-2.06-4.118a9.208,9.208,0,0,0-8.235-5.09H98.58l-7.85-7.85a4.6,4.6,0,0,0-7.861,3.254V49.977L119.7,63.13V52.892h9.208a18.414,18.414,0,0,0,18.415-18.415V25.269A4.6,4.6,0,0,0,142.719,20.665ZM110.492,34.477a4.6,4.6,0,1,1,4.6-4.6A4.6,4.6,0,0,1,110.492,34.477ZM27.623,57.5a9.22,9.22,0,0,1-9.208-9.208A9.208,9.208,0,0,0,0,48.288,27.576,27.576,0,0,0,18.415,74.213v61.548a4.6,4.6,0,0,0,4.6,4.6H41.435a4.6,4.6,0,0,0,4.6-4.6V103.534H92.077v32.227a4.6,4.6,0,0,0,4.6,4.6H115.1a4.6,4.6,0,0,0,4.6-4.6V72.9L76.553,57.5Z" transform="translate(0 -2.25)" fill="#492f24"/>
</svg>
