<svg xmlns="http://www.w3.org/2000/svg" width="123.49" height="115.785" viewBox="0 0 123.49 115.785">
  <g id="Icon_material-pets" data-name="Icon material-pets" transform="matrix(0.809, -0.588, 0.588, 0.809, -10.941, 44.994)">
    <path id="Path_2" data-name="Path 2" d="M25.835,13.18c.4,6.871-5.061,12.12-12.19,11.723S.417,18.615.02,11.744,5.081-.375,12.21.021,25.439,6.309,25.835,13.18Z" transform="translate(0 18.613)" fill="#593c30"/>
    <path id="Path_3" data-name="Path 3" d="M25.835,13.18c.4,6.871-5.061,12.12-12.19,11.723S.417,18.615.02,11.744,5.081-.375,12.21.021,25.439,6.309,25.835,13.18Z" transform="translate(22.085 0)" fill="#593c30"/>
    <path id="Path_4" data-name="Path 4" d="M25.835,13.18c.4,6.871-5.061,12.12-12.19,11.723S.417,18.615.02,11.744,5.081-.375,12.21.021,25.439,6.309,25.835,13.18Z" transform="translate(53.063 1.723)" fill="#593c30"/>
    <path id="Path_5" data-name="Path 5" d="M25.835,13.18c.4,6.871-5.061,12.12-12.19,11.723S.417,18.615.02,11.744,5.081-.375,12.21.021,25.439,6.309,25.835,13.18Z" transform="translate(77.445 22.921)" fill="#593c30"/>
    <path id="Path_6" data-name="Path 6" d="M67.7,23.314c-4.785-5.326-8.8-9.865-13.64-15.194-2.53-2.819-5.731-5.676-9.414-7.071a11.763,11.763,0,0,0-1.73-.543A27.616,27.616,0,0,0,38.874.083,22.171,22.171,0,0,0,34.81.105a9.96,9.96,0,0,0-1.678.353c-3.545.993-6.385,3.514-8.656,6.066-4.2,4.826-7.718,8.946-11.969,13.769C6.119,26.437-1.777,33.191.355,43.379a18.557,18.557,0,0,0,12.7,12.214c3.812.956,15.672-1.311,28.477-.6l.929.052c12.8.712,25,4.268,28.729,3.78,6.68-1.067,10.156-5.933,11.364-10.876C83.565,37.887,74.836,30.209,67.7,23.314Z" transform="translate(13.063 38.122)" fill="#593c30"/>
  </g>
</svg>
