<svg xmlns="http://www.w3.org/2000/svg" width="420.364" height="359.102" viewBox="0 0 420.364 359.102">
  <g id="Dog_paw-cuate" data-name="Dog paw-cuate" transform="translate(-27.65 -43.833)">
    <g id="freepik--background-complete--inject-54" transform="translate(51.564 43.833)">
      <path id="Path_31" data-name="Path 31" d="M407.793,119.838c.151-1.446.51-2.876.775-4.313a39.827,39.827,0,0,1,4.074-9.92,14.456,14.456,0,0,1,1.891-2.391c2.25-2.254,4.944-2.552,7.817-1a15.807,15.807,0,0,1,5.161,4.688c2.987,4.058,5.038,8.507,4.66,13.408a14.905,14.905,0,0,1-7.477,12.064c-5.275,3.216-11.485,1.889-14.737-3.046a14.054,14.054,0,0,1-2.165-9.486Z" transform="translate(-72.361 -52.402)" fill="#ffe3c5"/>
      <path id="Path_32" data-name="Path 32" d="M378.073,122.769c-3.1-5.1-3.214-10.413,0-15.518a24.452,24.452,0,0,1,13.395-10.209,13.286,13.286,0,0,1,3.186-.613,5.461,5.461,0,0,1,6.012,3.454,15.844,15.844,0,0,1,.8,7.81c-.189,1.982-.52,3.956-.785,5.955a18.848,18.848,0,0,1-4.726,9.852,13.338,13.338,0,0,1-6.456,3.854,10.244,10.244,0,0,1-11.428-4.585Z" transform="translate(-70.612 -51.675)" fill="#ffe3c5"/>
      <path id="Path_33" data-name="Path 33" d="M360.048,144.714a13.607,13.607,0,0,1-6.513-13.433,15.253,15.253,0,0,1,.416-1.812,18.528,18.528,0,0,1,5.691-9.852,10.12,10.12,0,0,1,.945-.715c3.2-2.2,6.248-1.931,8.886.851a19.3,19.3,0,0,1,4.036,6.959c1.2,3.284,2.231,6.6,1.749,10.132a11.759,11.759,0,0,1-2.448,5.955A9.447,9.447,0,0,1,360.048,144.714Z" transform="translate(-69.394 -54.819)" fill="#ffe3c5"/>
      <path id="Path_34" data-name="Path 34" d="M422.952,170.593c-.057.527-.161,1.055-.274,1.7-1.418,5.1-5.284,8.014-10.956,9.12a25.2,25.2,0,0,1-16.8-2.756,19.055,19.055,0,0,0-11.012-2.127c-5.889.57-11.457-.349-16.382-3.445-4.131-2.595-6.617-6.108-6.371-10.8a12.432,12.432,0,0,1,4.982-9.12,28.449,28.449,0,0,1,5.4-3.4,43.479,43.479,0,0,0,11.343-7.844,18.208,18.208,0,0,1,24.577-.34,14.628,14.628,0,0,1,4.282,6.9,20.237,20.237,0,0,0,5.53,9.214,16.944,16.944,0,0,1,5.672,11.613A8.021,8.021,0,0,1,422.952,170.593Z" transform="translate(-69.815 -57.735)" fill="#ffe3c5"/>
      <path id="Path_35" data-name="Path 35" d="M445.348,148.127a15.39,15.39,0,0,1-11.05,11.766c-5.946,1.863-11.561-1.072-12.506-6.67a11.064,11.064,0,0,1,.6-5.8c1.645-4.432,5.019-7.759,8.763-10.8a20.142,20.142,0,0,1,4.481-2.688c3.346-1.472,6.258-.561,8.073,2.357a14.7,14.7,0,0,1,1.976,8.286C445.612,145.941,445.423,147.3,445.348,148.127Z" transform="translate(-73.126 -57.177)" fill="#ffe3c5"/>
      <path id="Path_36" data-name="Path 36" d="M169.711,76.678c-.766-2.118-1.229-4.322-1.834-6.483-.822-5.368-1.7-10.728-1-16.164a20.152,20.152,0,0,1,1.04-4.39c1.626-4.39,5.19-6.321,10.285-5.691a26.978,26.978,0,0,1,10.4,3.743c6.938,4.067,12.808,9.112,15.625,16.258s2.316,14.463-2.335,21.022c-5.208,7.4-14.831,8.941-22.734,3.8A23.5,23.5,0,0,1,169.711,76.678Z" transform="translate(-59.17 -43.833)" fill="#ffe3c5"/>
      <path id="Path_37" data-name="Path 37" d="M130.379,98.2c-7.817-5.487-11.561-12.846-10.568-21.737a33.3,33.3,0,0,1,11.854-21.737,18.47,18.47,0,0,1,4.055-2.595,8.944,8.944,0,0,1,10.786,1.548c3.223,2.944,4.963,6.678,6.4,10.515,1.087,2.876,1.947,5.828,2.911,8.746,1.456,5.479,1.966,10.932.057,16.4a17.948,17.948,0,0,1-6.447,8.941A16.31,16.31,0,0,1,130.379,98.2Z" transform="translate(-56.599 -44.902)" fill="#ffe3c5"/>
      <path id="Path_38" data-name="Path 38" d="M118.383,141.057c-9.273-1.889-15.219-7.231-18.225-15.313a20.8,20.8,0,0,1-.643-2.765,26.42,26.42,0,0,1,1.371-16.913,13.65,13.65,0,0,1,.785-1.506c3-4.841,7.458-6.134,13.016-3.718a33.423,33.423,0,0,1,10.4,7.555c3.9,3.947,7.562,8.04,9.311,13.246a17.341,17.341,0,0,1,.577,9.656C133.214,138.5,126.333,142.682,118.383,141.057Z" transform="translate(-55.455 -52.165)" fill="#ffe3c5"/>
      <path id="Path_39" data-name="Path 39" d="M223.267,139.946c.284.783.492,1.574.8,2.6,1.427,7.878-1.995,14.148-9.207,18.81-7.609,4.917-16.306,6.279-25.437,5.334a29.232,29.232,0,0,0-16.883,3.063c-7.865,4.024-16.3,5.785-25.305,4.143-7.562-1.378-13.376-4.96-16.24-11.647a17.793,17.793,0,0,1,.813-15.526,38.382,38.382,0,0,1,5.256-7.759,59.119,59.119,0,0,0,10.644-17.236,24.3,24.3,0,0,1,13.77-13.655,28.437,28.437,0,0,1,20.487-.314,25.013,25.013,0,0,1,10.682,7.325,35.045,35.045,0,0,0,14.009,9.894c6.9,2.748,12.468,6.9,15.786,13.187a13.861,13.861,0,0,1,.822,1.778Z" transform="translate(-57.143 -53.113)" fill="#ffe3c5"/>
      <path id="Path_40" data-name="Path 40" d="M239.419,94.359c1.966,9.358-.454,16.683-7.562,22.562-7.241,6.015-16.949,4.841-22.072-2.493a17.6,17.6,0,0,1-3.091-8.507c-.69-7.121,1.8-13.612,4.991-19.959a26.908,26.908,0,0,1,4.462-6.227c3.7-3.9,8.394-4.254,12.912-1.114a24.707,24.707,0,0,1,8.385,10.532C238.369,91.117,238.974,93.159,239.419,94.359Z" transform="translate(-61.356 -48.71)" fill="#ffe3c5"/>
      <path id="Path_41" data-name="Path 41" d="M93.953,241.593c-.794-1.268-1.408-2.62-2.1-3.939-1.3-3.352-2.618-6.678-2.949-10.209a12.7,12.7,0,0,1,0-2.935c.416-3,2.42-4.654,5.776-4.832a18.169,18.169,0,0,1,7.212,1.191c5.019,1.8,9.509,4.364,12.289,8.618a13.93,13.93,0,0,1,1.5,13.748c-2.288,5.351-8.233,7.444-14.037,5.062a16.239,16.239,0,0,1-7.695-6.7Z" transform="translate(-54.912 -70.077)" fill="#ebebeb"/>
      <path id="Path_42" data-name="Path 42" d="M71.821,260.315c-5.795-2.62-9.235-6.9-9.869-12.761a20.841,20.841,0,0,1,4.5-15.313,11.167,11.167,0,0,1,2.231-2.135,5.864,5.864,0,0,1,7.127-.255,18.142,18.142,0,0,1,5.605,5.955c1.106,1.7,2.08,3.514,3.119,5.275,1.711,3.343,2.836,6.806,2.373,10.515a11.269,11.269,0,0,1-2.836,6.474,10.569,10.569,0,0,1-12.251,2.246Z" transform="translate(-53.434 -71.435)" fill="#ebebeb"/>
      <path id="Path_43" data-name="Path 43" d="M69.454,289.662A16.023,16.023,0,0,1,55.6,282.005a15.813,15.813,0,0,1-.813-1.7,17.428,17.428,0,0,1-1.531-11.009,7.99,7.99,0,0,1,.293-1.055c1.229-3.454,3.9-4.79,7.808-3.888a23.223,23.223,0,0,1,7.713,3.624c3.063,2.076,6.012,4.254,7.855,7.41a11.512,11.512,0,0,1,1.739,6.125C78.6,286.31,74.786,289.781,69.454,289.662Z" transform="translate(-52.949 -76.706)" fill="#ebebeb"/>
      <path id="Path_44" data-name="Path 44" d="M136.733,275.755c.293.459.529.944.879,1.574,2.042,4.883.737,9.3-3.214,13.119-4.178,4.033-9.557,5.913-15.55,6.364a18.6,18.6,0,0,0-10.4,3.9,24.755,24.755,0,0,1-15.635,5.589c-5.038,0-9.283-1.642-12.071-5.6a11.682,11.682,0,0,1-1.692-10.047,24.056,24.056,0,0,1,2.259-5.581A36.874,36.874,0,0,0,85.679,272.8a15.008,15.008,0,0,1,6.887-10.358,18.372,18.372,0,0,1,13.106-2.565,17.3,17.3,0,0,1,7.9,3.462,24.155,24.155,0,0,0,10.4,4.73,20.1,20.1,0,0,1,12,6.627A9.712,9.712,0,0,1,136.733,275.755Z" transform="translate(-54.351 -76.036)" fill="#ebebeb"/>
      <path id="Path_45" data-name="Path 45" d="M140.834,244.234c2.59,5.751,2.089,10.745-1.607,15.313a9.722,9.722,0,0,1-14.5.953,11.965,11.965,0,0,1-3.2-5.1c-1.456-4.492-.794-8.958.35-13.374a16.49,16.49,0,0,1,1.976-4.509c1.815-2.935,4.726-3.684,8.12-2.212a17.159,17.159,0,0,1,6.872,5.785C139.681,242.278,140.362,243.511,140.834,244.234Z" transform="translate(-56.656 -72.301)" fill="#ebebeb"/>
    </g>
    <g id="freepik--Table--inject-54" transform="translate(27.65 388.179)">
      <path id="Path_46" data-name="Path 46" d="M27.65,449.015l52.538-.2,52.548-.077,105.1-.145,105.1.145,52.548.077,52.538.2-52.538.213-52.548.077-105.1.136-105.1-.145-52.548-.068Z" transform="translate(-27.65 -448.59)" fill="#263238"/>
    </g>
    <g id="freepik--paw-2--inject-54" transform="translate(344.411 223.039)">
      <path id="Path_47" data-name="Path 47" d="M442.437,298.617c0,1.344,5.539,94.339,7.439,121.427H362.75c4.594-19.329,26.846-123.562,27.243-125.111.747-2.858-9.15-14.522-3.687-21.481,5.672-7.274,10.4-5,12.1-6.806s3.195-9.971,11.806-11.851c7.288-1.591,7.3,3.335,10.4,3.5,1.834.094,2.42-1.336,4.254-2.306h.047a.094.094,0,0,1,.066,0h0c1.248-.621,3.053-1.021,6.125-.63,8.007,1.021,10.067,14.7,11.438,16.479s7.26.459,9.2,8.227C454.565,291.2,442.389,297,442.437,298.617Z" transform="translate(-362.75 -254.479)" fill="#ffe3c5"/>
      <path id="Path_48" data-name="Path 48" d="M411.209,355.132c2.741-4.3,5.048-8.865,5.832-13.425.066-.366.766-.459,1-.128.633.9,2.42,3.4,2.675,3.828.076-.281.151-.561.208-.851a24.624,24.624,0,0,0,.444-2.842,27.028,27.028,0,0,0-.066-5.734,26.229,26.229,0,0,0-1.314-5.615c-.662-1.855-1.6-3.633-2.448-5.445a.132.132,0,0,1,.217-.068,20.916,20.916,0,0,1,3.431,5.368,25.584,25.584,0,0,1,1.891,5.581,22.351,22.351,0,0,1,.435,5.828,23.485,23.485,0,0,1-.359,3.02,6.91,6.91,0,0,1-.945,2.893c-.406.6-1.569.281-1.768-.221-.113-.306-2.259-3.871-2.6-4.39a24.688,24.688,0,0,1-1.891,5.811,29.146,29.146,0,0,1-4.273,6.517C411.492,355.464,411.086,355.319,411.209,355.132Z" transform="translate(-365.401 -264.977)" opacity="0.2"/>
      <path id="Path_49" data-name="Path 49" d="M425.13,274.218c0-.91.085-1.821.142-2.722a23.8,23.8,0,0,1,1.739-6.415,8.692,8.692,0,0,1,.945-1.608,3.753,3.753,0,0,1,4.726-1.123,10.23,10.23,0,0,1,3.573,2.552c2.165,2.323,3.781,4.926,3.951,8.014a9.042,9.042,0,0,1-3.687,7.963,6.658,6.658,0,0,1-4.932,1.466,6.349,6.349,0,0,1-4.445-2.419,8.838,8.838,0,0,1-2.013-5.708Z" transform="translate(-366.164 -255.594)" fill="#263238"/>
      <path id="Path_50" data-name="Path 50" d="M406.965,278.066a8.775,8.775,0,0,1-1.257-9.622,14.8,14.8,0,0,1,7.5-7.214,8.147,8.147,0,0,1,1.891-.578,3.489,3.489,0,0,1,4,1.753,9.934,9.934,0,0,1,1.115,4.79c.047,1.242,0,2.484,0,3.726a11.381,11.381,0,0,1-2.146,6.415,7.946,7.946,0,0,1-3.687,2.8A6.513,6.513,0,0,1,406.965,278.066Z" transform="translate(-365.052 -255.384)" fill="#263238"/>
      <path id="Path_51" data-name="Path 51" d="M397.344,293.089a8.729,8.729,0,0,1-5.1-7.912,9.434,9.434,0,0,1,.113-1.149,11.29,11.29,0,0,1,2.77-6.457,5.433,5.433,0,0,1,.51-.5,3.9,3.9,0,0,1,5.568-.06,12.371,12.371,0,0,1,3.1,4.075,13.256,13.256,0,0,1,1.891,6.168,7.194,7.194,0,0,1-1.049,3.828,5.381,5.381,0,0,1-3.406,2.556,6.011,6.011,0,0,1-4.392-.548Z" transform="translate(-364.364 -257.672)" fill="#263238"/>
      <path id="Path_52" data-name="Path 52" d="M438.3,304.781v1.106c-.473,3.224-2.637,5.309-6.069,6.355a15.805,15.805,0,0,1-10.634-.638,12.05,12.05,0,0,0-7-.6,15.971,15.971,0,0,1-10.4-1.089,7.272,7.272,0,0,1-2.439-12.234,17.193,17.193,0,0,1,3.072-2.467,26.241,26.241,0,0,0,6.428-5.589,10.805,10.805,0,0,1,7.151-3.844,11.4,11.4,0,0,1,8.02,2.023,9.329,9.329,0,0,1,3.2,4.007,13.108,13.108,0,0,0,4.169,5.36,10.892,10.892,0,0,1,4.424,6.806C438.259,304.262,438.288,304.518,438.3,304.781Z" transform="translate(-364.755 -259.138)" fill="#263238"/>
      <path id="Path_53" data-name="Path 53" d="M450.391,289.182a9.31,9.31,0,0,1-5.917,8.006,6.235,6.235,0,0,1-5.072.2,5.264,5.264,0,0,1-3.218-3.535,6.87,6.87,0,0,1-.085-3.633c.671-2.858,2.5-5.1,4.575-7.265a12.068,12.068,0,0,1,2.571-1.948,3.821,3.821,0,0,1,2.833-.588,3.519,3.519,0,0,1,2.357,1.532,9.3,9.3,0,0,1,1.891,5C450.41,287.8,450.372,288.663,450.391,289.182Z" transform="translate(-366.753 -258.341)" fill="#263238"/>
      <path id="Path_54" data-name="Path 54" d="M428.621,256.15h0a1.257,1.257,0,0,0-.151.077Z" transform="translate(-366.347 -254.728)"/>
      <path id="Path_55" data-name="Path 55" d="M404.67,376.686a2.468,2.468,0,0,1,.047-.562,3.978,3.978,0,0,1,3.044-3.182,6.962,6.962,0,0,1,5.019.459,5.193,5.193,0,0,0,3.29.408,6.959,6.959,0,0,1,4.906.689,3.743,3.743,0,0,1,2.108,3.284,4.134,4.134,0,0,1-1.276,3.037,6.108,6.108,0,0,1-1.522,1.225c-2.3,1.157-3.838,1.217-7,.851s-4.632-.783-6.674-2.263a4.85,4.85,0,0,1-1.891-3.556A1.316,1.316,0,0,1,404.67,376.686Z" transform="translate(-365.044 -272.12)" fill="#263238"/>
    </g>
    <g id="freepik--paw-1--inject-54" transform="translate(41.986 258.121)">
      <path id="Path_56" data-name="Path 56" d="M136.052,426.2H55.279c-1.106-34.779-2.6-82.063-2.609-83.186,0-2.927-12.723-12.149-9.254-20.069,3.677-8.269,8.8-7.078,9.973-9.2s.473-10.362,8.347-14.029c6.617-3.1,7.969,1.7,11.012,1.183,1.805-.3,2-1.821,3.526-3.148l.132-.111h0c1.04-.851,2.694-1.625,5.766-1.9,8.044-.732,13.659,12.123,15.455,13.552s7.175-1.1,11.107,6.032c5.672,10.286-4.613,18.529-4.15,20.086C104.953,336.5,124.7,393.47,136.052,426.2Z" transform="translate(-42.816 -295.715)" fill="#ffe3c5"/>
      <path id="Path_58" data-name="Path 58" d="M97.97,395.5c-3.687-3.684-7-7.708-8.838-12.03-.151-.34-.86-.3-1.011.068-.406,1-1.56,3.82-1.72,4.254-.142-.255-.284-.51-.406-.766a24.711,24.711,0,0,1-1.087-2.705,26.983,26.983,0,0,1-1.276-5.606,25.36,25.36,0,0,1,0-5.743c.208-1.94.709-3.854,1.115-5.794,0-.077-.18-.1-.227,0a19.862,19.862,0,0,0-2.1,5.9,24.2,24.2,0,0,0-.5,5.811,22.665,22.665,0,0,0,.945,5.768,25.449,25.449,0,0,0,1.021,2.867,7.334,7.334,0,0,0,1.6,2.646,1.11,1.11,0,0,0,1.673-.553c.047-.315,1.314-4.211,1.522-4.781a26.63,26.63,0,0,0,3.186,5.326,31.406,31.406,0,0,0,5.672,5.564C97.771,395.874,98.131,395.661,97.97,395.5Z" transform="translate(-44.955 -306.371)" opacity="0.2"/>
      <path id="Path_59" data-name="Path 59" d="M79.733,316.105c-.255-.851-.388-1.787-.577-2.68a23.406,23.406,0,0,1,0-6.6,8.5,8.5,0,0,1,.529-1.77,3.621,3.621,0,0,1,4.339-2.076,10.974,10.974,0,0,1,4.15,1.7c2.722,1.8,4.982,3.973,5.955,6.942a8.72,8.72,0,0,1-1.484,8.507,6.323,6.323,0,0,1-4.4,2.483,6.676,6.676,0,0,1-4.958-1.394A9.474,9.474,0,0,1,79.733,316.105Z" transform="translate(-44.792 -296.78)" fill="#ff9bbc"/>
      <path id="Path_60" data-name="Path 60" d="M63.172,324.009a9.066,9.066,0,0,1-3.781-9.077,13.767,13.767,0,0,1,5.379-8.61,7.407,7.407,0,0,1,1.72-.978,3.62,3.62,0,0,1,4.348.851,10.323,10.323,0,0,1,2.354,4.415c.369,1.191.652,2.416.945,3.624a11.085,11.085,0,0,1-.388,6.687,7.386,7.386,0,0,1-2.836,3.505,6.643,6.643,0,0,1-7.742-.417Z" transform="translate(-43.714 -297.095)" fill="#ff9bbc"/>
      <path id="Path_61" data-name="Path 61" d="M57.34,341.135a9.038,9.038,0,0,1-7.231-7.767,10.829,10.829,0,0,1,.945-6.866,5.736,5.736,0,0,1,.359-.6c1.342-1.906,3.2-2.34,5.4-1.242a13.419,13.419,0,0,1,4.036,3.292,14.136,14.136,0,0,1,3.46,5.581,7.094,7.094,0,0,1,0,3.948,5,5,0,0,1-2.592,3.2A6.021,6.021,0,0,1,57.34,341.135Z" transform="translate(-43.204 -299.946)" fill="#ff9bbc"/>
      <path id="Path_62" data-name="Path 62" d="M100.068,343c.095.323.161.655.265,1.08.378,3.241-1.172,5.726-4.225,7.478a15.769,15.769,0,0,1-10.5,1.65,12.023,12.023,0,0,0-6.957.9,15.982,15.982,0,0,1-10.4,1.174,8.106,8.106,0,0,1-6.324-5.1,7.276,7.276,0,0,1,.718-6.313,16.028,16.028,0,0,1,2.335-3.054,24.4,24.4,0,0,0,4.726-6.806,10.088,10.088,0,0,1,5.962-5.282,11.6,11.6,0,0,1,8.359.3,10.05,10.05,0,0,1,4.206,3.241,14.083,14.083,0,0,0,5.454,4.322,11.631,11.631,0,0,1,6.106,5.692,5.422,5.422,0,0,1,.274.723Z" transform="translate(-43.839 -300.547)" fill="#ff9bbc"/>
      <path id="Path_63" data-name="Path 63" d="M107.762,324.865a8.762,8.762,0,0,1-3.639,9.035,6.108,6.108,0,0,1-4.868,1.275,5.644,5.644,0,0,1-4.056-2.738,7.077,7.077,0,0,1-1.049-3.48c-.1-2.91,1.078-5.513,2.533-8.023a11.334,11.334,0,0,1,1.976-2.45,3.674,3.674,0,0,1,2.6-1.172,3.736,3.736,0,0,1,2.694.984,9.919,9.919,0,0,1,3.148,4.458A21.693,21.693,0,0,1,107.762,324.865Z" transform="translate(-45.625 -298.938)" fill="#ff9bbc"/>
      <path id="Path_64" data-name="Path 64" d="M78.383,298h0l-.123.111Z" transform="translate(-44.756 -296.056)"/>
      <path id="Path_65" data-name="Path 65" d="M84.682,417.6c-.066-.162-.113-.323-.189-.536a3.64,3.64,0,0,1,1.569-3.956,6.828,6.828,0,0,1,4.859-1.2,5.144,5.144,0,0,0,3.242-.689,6.919,6.919,0,0,1,4.849-.944,4.15,4.15,0,0,1,3.28,2.382,3.976,3.976,0,0,1,0,3.25,5.515,5.515,0,0,1-.945,1.633c-1.692,1.821-3.1,2.374-6.192,3.08s-4.641.766-7.137.06a5.421,5.421,0,0,1-3.214-2.705,2.663,2.663,0,0,1-.123-.374Z" transform="translate(-45.09 -312.798)" fill="#ff9bbc"/>
    </g>
    <g id="freepik--Dog--inject-54" transform="translate(89.899 122.429)">
      <path id="Path_66" data-name="Path 66" d="M160.491,406.253l12.572-37.739s-33.529-10.558-41.913-25.837-1.465-93.922,6.919-116.748,42.755-52.057,89.064-62.241,94.093,9.784,111.9,29.963,48.3,87.006,50.194,106.054-32.064,41.644-32.064,41.644l21.9,64.912Z" transform="translate(-95.355 -139.908)" fill="#492f24"/>
      <g id="Group_52" data-name="Group 52" transform="translate(77.708 201.434)" opacity="0.1">
        <path id="Path_67" data-name="Path 67" d="M175.71,404.928c5.142.536,10.086,1.8,15.124,2.79,3,.544,6.05.851,9.094,1.455-8.328,1.293-16.769-.944-24.208-4.254Z" transform="translate(-175.71 -377.756)"/>
        <path id="Path_68" data-name="Path 68" d="M348.34,384.56c4.188-2.714,8.772-4.773,13.234-7.087,2.647-1.412,5.076-2.995,7.713-4.483-4.982,6.125-13.016,9.477-20.919,11.57Z" transform="translate(-185.157 -372.99)"/>
      </g>
      <path id="Path_69" data-name="Path 69" d="M338.23,442.133s-16.656-31.418-28.916-37.739-70.083-3.054-82.05,11.791a111.508,111.508,0,0,0-15.124,25.948Z" transform="translate(-99.995 -175.787)" fill="#ffe3c5"/>
      <path id="Path_70" data-name="Path 70" d="M267.189,366.27c-46.914,5.275-71.671-30.091-68.693-50.739,3.6-24.961,43.171-35.34,39.286-63.381-2.344-16.862-16.807-20.273-18.083-29.461-1.966-14.148,12.827-38.981,22.015-39.985s30.305,19.771,32.272,33.919c1.276,9.188-11.816,15.7-9.453,32.558,3.895,28.032,45.09,29.342,55.4,52.746C328.462,321.24,314.113,360.995,267.189,366.27Z" transform="translate(-99.236 -143.15)" fill="#ffe3c5"/>
      <path id="Path_71" data-name="Path 71" d="M203.364,280.89c-24.482,3.1-19.764,41.69,4.754,38.58S227.869,277.78,203.364,280.89Z" transform="translate(-109.487 -174.758)" fill="#fff"/>
      <path id="Path_72" data-name="Path 72" d="M183.37,265.476c.548-6.968,10.871-11.409,16.958-6.806a40.9,40.9,0,0,0-8.044,1.7c-3.318,1.2-5.917,3.054-8.914,5.053Z" transform="translate(-109.755 -162.223)"/>
      <path id="Path_73" data-name="Path 73" d="M322.941,248.292c-3.45-1.268-6.485-2.493-10.02-2.927a40.791,40.791,0,0,0-8.271.111C309.329,239.631,320.464,241.656,322.941,248.292Z" transform="translate(-99.917 -170.072)"/>
      <path id="Path_74" data-name="Path 74" d="M311.084,267.227c-21.974,3.046-17.748,40.986,4.269,37.928S333.09,264.169,311.084,267.227Z" transform="translate(-104.616 -177.711)" fill="#fff"/>
      <path id="Path_75" data-name="Path 75" d="M275.9,332.176c-.851,5.283-2.278,12.906-11.646,13.961s-12.837-6.023-15.124-10.949c0,0,4.859,1.548,7.77-.681s3.271-17.687,3.271-17.687,4.566,14.905,8,16.428S275.9,332.176,275.9,332.176Z" transform="translate(-102.02 -163.173)" fill="#ff9bbc"/>
      <path id="Path_76" data-name="Path 76" d="M264.17,340.941a72.683,72.683,0,0,1-3.261-23.481,72.876,72.876,0,0,1,3.261,23.481Z" transform="translate(-102.663 -163.268)" fill="#263238"/>
      <path id="Path_77" data-name="Path 77" d="M279.466,300.428c.284,2.059-1.787,4.458-2.666,5.521-1.843,2.178-5.8,3.309-7.127,2.186-1.541-1.293,2.581-2.484,2.042-3.837a3.355,3.355,0,0,0-3.932-1.974c-2.042.578-.539,5.674-1.248,7.384a8.29,8.29,0,0,1-6.617,4.73h-.208a8.821,8.821,0,0,1-7.723-3.114c-1.153-1.5-1.068-6.806-3.223-6.883a3.171,3.171,0,0,0-3.28,2.782c-.151,1.429,4.169,1.7,3.034,3.267-.945,1.378-5.133,1.157-7.505-.544-1.144-.851-3.781-2.705-4.093-4.756-.388-2.748,5.35-9.188,20-10.83h.208C271.771,292.712,279.088,297.68,279.466,300.428Z" transform="translate(-101.35 -159.772)" fill="#263238"/>
      <path id="Path_78" data-name="Path 78" d="M234.52,323.06a29.923,29.923,0,0,0,3.857,4.126c2.7,2.467,5.568,4.9,9.122,6.245,2.382.851,5.086,1.7,7.326.561,1.654-1.37,2.013-4.432,2.59-6.517.737-3.48,1.286-7.044,1.966-10.626.662,4.713,1.314,15.467-2.609,19-3.072,2.118-7.392,1.063-10.4-.315a24.2,24.2,0,0,1-8.99-7.657,18.1,18.1,0,0,1-2.836-4.807Z" transform="translate(-101.22 -163.177)" fill="#263238"/>
      <path id="Path_79" data-name="Path 79" d="M286.627,317.354a17.088,17.088,0,0,1-1.475,5.3,22.467,22.467,0,0,1-6.617,9.358c-2.514,2-6.418,3.982-9.963,2.6-4.726-2.552-7.08-13.119-7.732-17.866,1.645,3.326,3.148,6.653,4.811,9.86,1.125,1.9,2.316,4.79,4.3,5.743,2.467.578,4.868-.808,6.938-2.161,3.091-2.093,5.19-5.1,7.137-8.074a27.009,27.009,0,0,0,2.618-4.815Z" transform="translate(-102.66 -163.162)" fill="#263238"/>
      <path id="Path_80" data-name="Path 80" d="M285.1,362.877a45.284,45.284,0,0,1-14.737,4.254c-.4,0-.539.647-.2.851.945.6,3.545,2.3,3.951,2.552-.3.051-.6.1-.945.136q-1.528.187-3.072.221a36.114,36.114,0,0,1-6.144-.391A32.658,32.658,0,0,1,258,369.028c-1.957-.672-3.781-1.591-5.672-2.442-.085,0-.161.128-.085.187a23.214,23.214,0,0,0,5.568,3.292A31.648,31.648,0,0,0,263.7,372a29.945,29.945,0,0,0,6.22.715q1.638.008,3.271-.136a8.794,8.794,0,0,0,3.157-.655c.662-.323.388-1.353-.142-1.548-.321-.119-4.017-2.195-4.556-2.51a32.161,32.161,0,0,0,6.343-1.293,33.233,33.233,0,0,0,7.231-3.343C285.408,363.141,285.276,362.784,285.1,362.877Z" transform="translate(-102.189 -170.045)" fill="#263238"/>
      <path id="Path_81" data-name="Path 81" d="M160.491,421.151l12.572-37.739s-33.529-10.558-41.913-25.837c-6.674-12.166-3.649-64.47,2.089-96.815-.2,12.761-.822,76.627,11.116,91.813s35.523,24.672,66.33,30.84c0,0-13.423,12.353-13.423,22.256,0,6.678,10.615,15.484,54.93,15.484Z" transform="translate(-95.355 -154.806)" opacity="0.1"/>
      <path id="Path_82" data-name="Path 82" d="M369.525,376.47s4.339,37.79,2.666,46.842-37.3,15.109-37.3,15.109h55.535Z" transform="translate(-106.713 -172.076)" opacity="0.1"/>
      <path id="Path_83" data-name="Path 83" d="M199.629,170.653c-3.923,1.063-10-1.48-12.827-4.211s-7.969-12.361-7.969-12.361-1.569,8.865-.728,13.016a15.487,15.487,0,0,0,2.93,6.6,29.631,29.631,0,0,1-10.058-7.733c-3.781-4.9-6.078-8.108-11.343-8.958s-20.541,18.861-32.584,25.463-24.577,10-29.133,16.411-4.188,36.582,3.148,54.695,27.025,36.582,35.826,33.758,3.507-23.549,16.92-49.573c10.3-19.993,24.577-28.883,24.577-28.883Z" transform="translate(-93.581 -138.883)" fill="#492f24"/>
      <path id="Path_84" data-name="Path 84" d="M176.032,220.8a81.873,81.873,0,0,0-21.845,26.918c-13.4,26.024-8.11,46.749-16.911,49.573s-28.5-15.654-35.835-33.783c4.3,8.507,24.492,25.267,30.6,21.124,4.726-3.2,8.186-25.276,15.616-37.722C154.9,234.88,174.756,221.617,176.032,220.8Z" transform="translate(-93.937 -148.841)" opacity="0.1"/>
      <path id="Path_85" data-name="Path 85" d="M199.551,170.375c-4.726,1.08-10.445-1.421-13.6-4.637A48.323,48.323,0,0,1,181.855,160c-1.238-1.974-2.42-3.973-3.564-6l.945-.128c-.822,6.355-2.089,13.612,2.325,19.108l1.995,2.484-2.987-1.4a33.1,33.1,0,0,1-7.732-5.045c-4.443-3.82-6.778-10.507-13.555-11.357-2.325.357-4.14,2.237-5.927,3.616-6.617,5.777-12.7,12.336-19.728,17.866-9.292,7.555-22.176,10.337-31.78,17.262A10.221,10.221,0,0,0,97.64,202.8a69.254,69.254,0,0,0-1.371,16.368c.274,11,1.664,22.2,5.473,32.669a63.979,63.979,0,0,0,8.092,14.743c4.452,6.347,17.563,21.532,26.647,19.78a5.079,5.079,0,0,0,2.609-2.595c1.891-3.726,2.7-7.878,3.658-11.91,3.715-16.164,6.74-33.758,18.839-46.868-7.723,8.839-11.343,19.831-14.018,30.627-1.3,5.453-2.288,10.958-3.4,16.462-.945,4.143-1.645,8.4-3.6,12.31-2.458,5.428-8.63,3.973-13.092,1.557-8.12-4.5-14.349-11.2-19.652-18.206C97.045,253.57,94.058,236,93.529,219.182c-.066-2.816,0-5.64.151-8.507.406-4.347.577-8.8,3.006-12.821,2.732-3.743,7.231-6.04,11.343-8.091,6.891-3.309,13.971-5.955,20.333-9.86a84.727,84.727,0,0,0,10.275-8.218c4.377-3.922,8.507-8.108,13.12-11.953a20.339,20.339,0,0,1,6.059-3.82,4.181,4.181,0,0,1,2.278-.085l.614.128c6.617,1.489,9.027,7.869,13.338,11.91a31.128,31.128,0,0,0,7.194,4.883l-.993,1.08a16.112,16.112,0,0,1-2.467-4.807c-1.7-5.5-.189-11.3.662-16.8,2.363,4.483,4.726,9.111,7.884,13.17,2.987,3.182,8.4,5.853,13.149,4.951Z" transform="translate(-93.503 -138.606)" fill="#263238"/>
      <path id="Path_86" data-name="Path 86" d="M277.28,158.5c4.084.289,9.453-3.4,11.532-6.585s4.84-13.612,4.84-13.612,3.639,8.363,3.781,12.574a14.932,14.932,0,0,1-1.3,7.01,27.846,27.846,0,0,0,7.988-9.486c2.524-5.513,4.008-9.095,8.923-10.932s24.577,14.463,37.887,18.606,26.468,5.028,32.357,10.422,12.827,34.949,9.992,54.048-17.762,40.938-27.025,39.866-9.018-22.332-28.3-45.175c-14.812-17.551-30.873-23.489-30.873-23.489Z" transform="translate(-103.56 -136.382)" fill="#492f24"/>
      <path id="Path_87" data-name="Path 87" d="M397.081,229.948c-2.836,19.1-17.714,40.946-26.988,39.883-8.4-.97-8.971-18.572-23.424-38.9a.237.237,0,0,1,0-.06c7.959,6.415,18.017,29.232,25.144,29.989s18.13-16.938,21.269-28.925c1.891-7.223,2.789-30.993,2.836-31.529C397.611,210.27,398.348,221.185,397.081,229.948Z" transform="translate(-107.357 -145.798)" opacity="0.1"/>
      <path id="Path_88" data-name="Path 88" d="M277.28,158.331c4.83,0,9.519-3.684,11.674-7.367,2.136-4.577,3.318-9.545,4.566-14.378,2.136,5.207,4.991,10.583,4.632,16.283a14.924,14.924,0,0,1-1.267,5.164l-1.219-.851a29.63,29.63,0,0,0,5.87-6.151c3.252-4.764,4.046-11.468,10.19-14.2a4.944,4.944,0,0,1,2.836-.6,21.536,21.536,0,0,1,6.834,2.552c5.445,2.867,10.445,6.168,15.654,9.154a88.513,88.513,0,0,0,12,6.049c7.137,2.552,14.68,3.811,22.2,5.726,4.556,1.2,9.453,2.552,13.054,5.717,3.327,3.454,4.547,7.767,5.984,11.91.851,2.731,1.55,5.487,2.155,8.252,3.479,16.53,4.726,34.268-2.429,50.194-3.507,7.861-8.006,15.611-14.86,21.566-3.781,3.173-9.453,5.87-13.168,1-2.836-3.454-4.556-7.461-6.437-11.332-2.4-5.164-4.66-10.354-7.241-15.424-5.142-10.064-11.343-20.1-20.976-27.224,14.945,10.481,22.063,27.045,29.54,42.163,1.891,3.514,5.35,12.174,9.576,12.957,9.264,0,18.537-17.5,21.325-24.45a61.072,61.072,0,0,0,4.4-15.96c1.229-10.966-.066-22.17-2.42-32.966a70.947,70.947,0,0,0-5.227-15.73,10.891,10.891,0,0,0-5.624-5.428c-11.031-4.917-24.275-5.156-35.145-10.745-8.186-4.033-15.673-9.273-23.518-13.612-2.07-1.012-4.282-2.493-6.617-2.391-6.418,2.135-7.108,9.112-10.549,13.7a30.821,30.821,0,0,1-6.352,6.415l-2.581,1.957,1.352-2.824c3.006-6.227.047-13.05-2.259-19.108l.945-.06c-.624,2.195-1.314,4.373-2.051,6.542a45.527,45.527,0,0,1-2.637,6.389c-2.316,3.735-7.288,7.3-12.185,7.146Z" transform="translate(-103.56 -136.217)" fill="#263238"/>
      <path id="Path_89" data-name="Path 89" d="M113.994,439.037c-1.011,6.015,6.125,13.153,10.842,13.867a11.276,11.276,0,0,0,8.328-2.408,17.832,17.832,0,0,0,12.289,6.644,14.557,14.557,0,0,0,12.109-4.254s4.726,3.25,13.045,3.25S183,448.8,183,448.8s5.672,1.421,9.746-1.548,5.029-10.328,2.2-15.986-19.51-23.3-39.7-23.532S115.535,429.7,113.994,439.037Z" transform="translate(-94.619 -176.741)" fill="#492f24"/>
      <path id="Path_90" data-name="Path 90" d="M135.79,439.09c-1.512,5.394-2.41,10.745-1.361,16.275C130.742,450.55,131.782,443.454,135.79,439.09Z" transform="translate(-95.618 -181.422)" fill="#263238"/>
      <path id="Path_91" data-name="Path 91" d="M183.08,435.89c4.878,4.1,7.231,11.545,3.535,16.879C187.561,446.814,185.613,441.292,183.08,435.89Z" transform="translate(-98.405 -180.944)" fill="#263238"/>
      <path id="Path_92" data-name="Path 92" d="M159.588,440c1.21,5.87,1,11.732.5,17.679C157.981,452.021,158.2,445.768,159.588,440Z" transform="translate(-97.061 -181.558)" fill="#263238"/>
      <path id="Path_93" data-name="Path 93" d="M182.164,451.318a14.7,14.7,0,0,1-11.627,6.168c-8.328,0-13.045-3.25-13.045-3.25a14.546,14.546,0,0,1-12.1,4.254,17.983,17.983,0,0,1-12.289-6.653,11.316,11.316,0,0,1-8.328,2.408c-4.717-.706-11.863-7.844-10.842-13.859.945-5.777,8.8-16.47,19.406-23.736-10.285,8.9-13.309,16.9-12.156,21.89s5.87,9.528,11.343,7.546c0,0,6.711,6.968,13.413,8.15a14.338,14.338,0,0,0,11.343-3.054s7.808,4.6,14.113,4.432A18.09,18.09,0,0,0,182.164,451.318Z" transform="translate(-94.616 -178.073)" opacity="0.1"/>
      <path id="Path_94" data-name="Path 94" d="M331.81,431.117h83.921s-3.847-55.052-3.687-56.66,12.988-6.125,11.627-17.542c-.945-7.92-6.957-7.223-8.092-9.12s-1.446-15.713-9.273-17.542-7.8,2.391-10.842,1.914-2.439-5.377-9.878-4.543c-8.791.978-11.277,8.941-13.234,10.549s-6.286-1.123-12.894,5.521c-6.3,6.347,2.042,18.955.945,21.711C359.743,367.064,331.81,431.117,331.81,431.117Z" transform="translate(-106.544 -164.771)" fill="#492f24"/>
      <path id="Path_95" data-name="Path 95" d="M387.232,428.59c-2.042-4.6-3.6-9.409-3.658-14.037,0-.366-.69-.544-.945-.247-.766.808-2.94,3.088-3.252,3.445,0-.289-.066-.57-.076-.851a24.32,24.32,0,0,1,0-2.876,27.337,27.337,0,0,1,.945-5.657,26.706,26.706,0,0,1,2.184-5.394c.945-1.753,2.155-3.4,3.28-5.1.057-.077-.123-.162-.2-.094a21.765,21.765,0,0,0-4.244,4.875,26.291,26.291,0,0,0-2.713,5.292,22.862,22.862,0,0,0-1.465,8.746,6.878,6.878,0,0,0,.473,2.986c.312.638,1.512.476,1.787,0,.161-.281,2.836-3.539,3.271-4.007a24.125,24.125,0,0,0,.945,5.955,28.012,28.012,0,0,0,3.2,6.993C386.9,428.87,387.317,428.777,387.232,428.59Z" transform="translate(-109.021 -175.252)" opacity="0.2"/>
      <path id="Path_96" data-name="Path 96" d="M398.336,348.361c.095-.9.321-1.8.482-2.7a24.7,24.7,0,0,1,2.543-6.193,9.355,9.355,0,0,1,1.182-1.489,3.793,3.793,0,0,1,4.878-.63,9.93,9.93,0,0,1,3.223,2.927c1.891,2.552,3.148,5.283,2.911,8.371a9.32,9.32,0,0,1-4.67,7.529,6.763,6.763,0,0,1-5.086.953,6.159,6.159,0,0,1-4.111-2.859,8.684,8.684,0,0,1-1.352-5.913Z" transform="translate(-110.181 -166.146)" fill="#ff9bbc"/>
      <path id="Path_97" data-name="Path 97" d="M379.785,350.185a8.753,8.753,0,0,1,0-9.69,15.349,15.349,0,0,1,8.366-6.4,8.148,8.148,0,0,1,1.985-.374,3.415,3.415,0,0,1,3.781,2.152,9.85,9.85,0,0,1,.491,4.875c-.113,1.234-.321,2.467-.492,3.7a11.694,11.694,0,0,1-2.94,6.142A8.277,8.277,0,0,1,386.951,353a6.391,6.391,0,0,1-7.165-2.816Z" transform="translate(-109.09 -165.69)" fill="#ff9bbc"/>
      <path id="Path_98" data-name="Path 98" d="M368.53,363.886a8.483,8.483,0,0,1-4.055-8.38,9.326,9.326,0,0,1,.255-1.132,11.633,11.633,0,0,1,3.564-6.134,5.631,5.631,0,0,1,.577-.451,3.9,3.9,0,0,1,5.539.519,12.137,12.137,0,0,1,2.524,4.347,13.159,13.159,0,0,1,1.087,6.321,7.281,7.281,0,0,1-1.531,3.692,5.552,5.552,0,0,1-3.683,2.181,5.946,5.946,0,0,1-4.276-.964Z" transform="translate(-108.327 -167.659)" fill="#ff9bbc"/>
      <path id="Path_99" data-name="Path 99" d="M407.767,380.035a8.227,8.227,0,0,1-.17,1.1c-.889,3.156-3.3,5-6.844,5.691a15.751,15.751,0,0,1-10.483-1.7A11.943,11.943,0,0,0,383.4,383.8a15.823,15.823,0,0,1-10.218-2.144,7.38,7.38,0,0,1-3.98-6.738,7.726,7.726,0,0,1,3.11-5.691,17.633,17.633,0,0,1,3.375-2.135,27.283,27.283,0,0,0,7.09-4.9,11.359,11.359,0,0,1,15.361-.213,9.03,9.03,0,0,1,2.675,4.3,12.679,12.679,0,0,0,3.45,5.751,10.573,10.573,0,0,1,3.535,7.248,5.364,5.364,0,0,1-.028.757Z" transform="translate(-108.59 -169.481)" fill="#ff9bbc"/>
      <path id="Path_100" data-name="Path 100" d="M421.774,366.013a9.607,9.607,0,0,1-6.891,7.342,6.229,6.229,0,0,1-5.063-.326,5.094,5.094,0,0,1-2.745-3.842,6.858,6.858,0,0,1,.369-3.616c1.03-2.773,3.138-4.849,5.473-6.746a12.624,12.624,0,0,1,2.836-1.7,3.872,3.872,0,0,1,2.883-.285,3.417,3.417,0,0,1,2.145,1.757,9.117,9.117,0,0,1,1.238,5.173C421.963,364.609,421.821,365.46,421.774,366.013Z" transform="translate(-110.658 -169.122)" fill="#ff9bbc"/>
      <path id="Path_101" data-name="Path 101" d="M399.983,330.319c-.889.425-2.779,2.272-4.4,2.2s-4.169-3.25-5.19-3.743-4.8-1.148-8.914,1.132-6,7.07-8.385,9.086-3.668,1.131-5.917,1.7a9.887,9.887,0,0,0-6.863,8.023c-.832,5,4.5,16.4,4.292,17.534s-16.287,45.311-13.3,53.376C354.62,428.605,391.9,431,391.9,431l-.265.17H331.81s27.933-64.036,28.6-65.712c1.1-2.756-7.25-15.365-.945-21.711,6.617-6.644,10.937-3.913,12.884-5.521s4.433-9.571,13.234-10.549c7.439-.851,6.834,4.067,9.878,4.543C397.27,332.454,398.036,331.093,399.983,330.319Z" transform="translate(-106.544 -164.778)" opacity="0.1"/>
      <path id="Path_102" data-name="Path 102" d="M404.111,330.71h0l-.161.06Z" transform="translate(-110.492 -165.246)"/>
      <path id="Path_103" data-name="Path 103" d="M306.122,267.146c-14.462,1.625-11.681,21.86,2.81,20.229S320.606,265.515,306.122,267.146Z" transform="translate(-98.922 -165.098)" fill="#180701"/>
      <path id="Path_104" data-name="Path 104" d="M306.122,267.146c-14.462,1.625-11.681,21.86,2.81,20.229S320.606,265.515,306.122,267.146Z" transform="translate(-210.221 -149.676)" fill="#180701"/>
    </g>
  </g>
</svg>
