<svg xmlns="http://www.w3.org/2000/svg" width="79.405" height="53.6" viewBox="0 0 79.405 53.6">
  <path id="Icon_zocial-email" data-name="Icon zocial-email" d="M.072,52.921V8.815q0-.077.23-1.455L26.259,29.566.378,54.452a6.489,6.489,0,0,1-.306-1.531ZM3.518,4.3a3.3,3.3,0,0,1,1.3-.23h69.91a4.336,4.336,0,0,1,1.378.23L50.073,26.58l-3.446,2.757-6.815,5.59L33,29.337,29.552,26.58Zm.077,53.141L29.705,32.4l10.107,8.193L49.92,32.4,76.031,57.438a3.677,3.677,0,0,1-1.3.23H4.819a3.468,3.468,0,0,1-1.225-.23ZM53.366,29.566,79.247,7.361a4.57,4.57,0,0,1,.23,1.455V52.921a5.869,5.869,0,0,1-.23,1.531Z" transform="translate(-0.072 -4.068)" fill="#ae957b"/>
</svg>
