<svg xmlns="http://www.w3.org/2000/svg" width="232.98" height="62.915" viewBox="0 0 232.98 62.915">
  <g id="logo" transform="translate(-158.02 -46.085)">
    <path id="Path_1" data-name="Path 1" d="M161.6,67.913s-4.757-20.776,0-21.4,7.4,21.145,11.6,21.4,6.885-20.989,10.067-19.333,0,25.867,0,25.867Z" transform="translate(0.997 2.087)" fill="none" stroke="#ffe3c5" stroke-width="5"/>
    <text id="Petology" transform="translate(159 100)" fill="#ffe3c5" font-size="45" font-family="ShowcardGothic-Reg, Showcard Gothic"><tspan x="0" y="0">Petology</tspan></text>
    <g id="Group_2" data-name="Group 2" transform="translate(53 20.137)">
      <path id="path92" d="M2256.483-706.977c-.4-1.244-1.7-.8-2.736-.816a8.583,8.583,0,0,1-2.054-.267,3.319,3.319,0,0,1-1.277-.6,1.756,1.756,0,0,0-.176-.53c-.238-.676-1.539-.585-1.474.244.019.24-1.015.6-1.279.681a11.873,11.873,0,0,1-1.727.4c-.884.144-2.275-.158-3,.412a.763.763,0,0,1-.064-.043c-.082-.068-.232.014-.165.116.028.044.06.085.09.126a.231.231,0,0,0,0,.123.766.766,0,0,0-.171.539,5.935,5.935,0,0,0,3.5,5.052,8.974,8.974,0,0,0,7.305-.139c2.04-.91,3.944-3.017,3.22-5.3" transform="translate(-2016.986 786.836)" fill="#f46e79"/>
      <path id="path94" d="M2256.107-710.049a1.494,1.494,0,0,0-1.051-.162c-.377.018-.753.032-1.13.028a5.052,5.052,0,0,1-2.31-.469,5.068,5.068,0,0,1-1.69-1.769.363.363,0,0,0-.6-.011,6.045,6.045,0,0,1-3.51,2.172,6.967,6.967,0,0,1-2.112.133.815.815,0,0,0-.931.446,2.5,2.5,0,0,0-.038,1.084,4.143,4.143,0,0,0,1.038,2.254l-.017.009a.182.182,0,0,0,.14.332c.758-.2,1.506-.425,2.274-.588a16.037,16.037,0,0,1,2.329-.34,15.275,15.275,0,0,1,4.679.405c.388.1.773.208,1.15.336a1.891,1.891,0,0,0,1.117.222c.386-.119.482-.533.584-.857a7.984,7.984,0,0,0,.27-1.14,8.2,8.2,0,0,0,.109-1.211,1.034,1.034,0,0,0-.3-.878" transform="translate(-2017.196 789.393)" fill="#f14556"/>
      <path id="path96" d="M2218.637-723.608c.716,5,8.754,4.92,10.5.691l-1.2.156c2.254,3.6,9.176,4.373,10.632-.35.248-.807-1.017-1.152-1.264-.348-1.111,3.6-6.6,2.658-8.236.037a.666.666,0,0,0-1.2.156c-.643,1.559-2.721,2.154-4.252,2.146-1.839-.012-3.442-.917-3.716-2.837-.119-.83-1.382-.476-1.264.348" transform="translate(-1996 799.66)" fill="#ffe3c5"/>
      <path id="path98" d="M2239.191-699.637a6.535,6.535,0,0,0,4.488,7.452c2.884,1,6.509.571,8.615-1.708a6.682,6.682,0,0,0,1.547-5.29c-.065-.668-1.116-.514-1.054.119a5.414,5.414,0,0,1-4.176,6.16,7.5,7.5,0,0,1-7.29-2.076,5.456,5.456,0,0,1-1.095-4.515c.109-.667-.932-.78-1.036-.14" transform="translate(-2014.023 778.54)" fill="#ffe3c5"/>
    </g>
  </g>
</svg>
