<svg xmlns="http://www.w3.org/2000/svg" width="163.841" height="171.143" viewBox="0 0 163.841 171.143">
  <g id="Icon_material-pets" data-name="Icon material-pets" transform="matrix(0.809, 0.588, -0.588, 0.809, 64.967, -20.944)" opacity="0.41">
    <path id="Path_2" data-name="Path 2" d="M37.018,19.226c.557,9.66-7.115,17.038-17.137,16.481s-18.6-8.84-19.155-18.5S7.841.169,17.863.726s18.6,8.84,19.155,18.5Z" transform="translate(1.149 27.46)" fill="#ffe3c5"/>
    <path id="Path_3" data-name="Path 3" d="M37.018,19.226c.557,9.66-7.115,17.038-17.137,16.481s-18.6-8.84-19.155-18.5S7.841.169,17.863.726s18.6,8.84,19.155,18.5Z" transform="translate(32.197 1.292)" fill="#ffe3c5"/>
    <path id="Path_4" data-name="Path 4" d="M37.018,19.226c.557,9.66-7.115,17.038-17.137,16.481s-18.6-8.84-19.155-18.5S7.841.169,17.863.726s18.6,8.84,19.155,18.5Z" transform="translate(75.747 3.714)" fill="#ffe3c5"/>
    <path id="Path_5" data-name="Path 5" d="M37.018,19.226c.557,9.66-7.115,17.038-17.137,16.481s-18.6-8.84-19.155-18.5S7.841.169,17.863.726s18.6,8.84,19.155,18.5Z" transform="translate(110.025 33.515)" fill="#ffe3c5"/>
    <path id="Path_6" data-name="Path 6" d="M97.634,34.992C90.908,27.5,85.258,21.123,78.459,13.632,74.9,9.668,70.4,5.652,65.224,3.691a16.536,16.536,0,0,0-2.432-.763,38.824,38.824,0,0,0-5.678-.595,31.169,31.169,0,0,0-5.714.031,14,14,0,0,0-2.359.5c-4.984,1.4-8.976,4.94-12.169,8.528-5.9,6.785-10.85,12.577-16.826,19.357C11.067,39.382-.034,48.876,2.963,63.2c2.517,7.253,8.223,14.614,17.849,17.171,5.359,1.344,22.033-1.843,40.034-.842l1.307.073c18,1,35.147,6,40.389,5.315,9.391-1.5,14.278-8.341,15.976-15.29,1.427-14.147-10.845-24.941-20.882-34.635Z" transform="translate(17.748 53.367)" fill="#ffe3c5"/>
  </g>
</svg>
