<svg xmlns="http://www.w3.org/2000/svg" width="61.8" height="61.8" viewBox="0 0 61.8 61.8">
  <path id="Icon_awesome-phone-alt" data-name="Icon awesome-phone-alt" d="M60.037,43.671,46.518,37.877a2.9,2.9,0,0,0-3.38.833l-5.987,7.315A44.74,44.74,0,0,1,15.764,24.637l7.315-5.987a2.89,2.89,0,0,0,.833-3.38L18.118,1.751A2.916,2.916,0,0,0,14.8.073L2.245,2.97A2.9,2.9,0,0,0,0,5.793,56,56,0,0,0,56.007,61.8a2.9,2.9,0,0,0,2.824-2.245L61.728,47A2.932,2.932,0,0,0,60.037,43.671Z" transform="translate(0 0)" fill="#ae957b"/>
</svg>
